<?xml version="1.0" encoding="utf-8"?>
<!-- Generator: Adobe Illustrator 27.5.0, SVG Export Plug-In . SVG Version: 6.00 Build 0)  -->
<svg version="1.1" id="png" xmlns="http://www.w3.org/2000/svg" xmlns:xlink="http://www.w3.org/1999/xlink" x="0px" y="0px"
	 viewBox="0 0 595.28 591.78" style="enable-background:new 0 0 595.28 591.78;" xml:space="preserve">
<style type="text/css">
	.st0{fill:#020202;}
</style>
<path class="st0" d="M299.51,364.61c30.76-2.41,64.01-5.17,97.3-7.6c37.33-2.72,72.55-12.77,106.17-28.29
	c7.93-3.66,15.74-7.75,22.96-12.54c17.68-11.74,18.77-30.6,3.36-44.91c-13.36-12.39-30.23-17.92-47.46-21.68
	c-9.53-2.08-12.18-8.18-15.57-14.88c-2.45-4.87-5.13-9.64-7.29-14.62c-0.36-0.82,1.75-3.73,2.25-3.62
	c15.7,3.33,31.31,6.99,46.99,10.46c26.14,5.79,49.03,17.38,69.16,34.57c20.28,17.32,23.66,43.3,8.44,64.69
	c-11.5,16.16-28.78,24.31-46.25,31.44c-21.38,8.74-43.49,16.01-65.71,22.59c-22.32,6.62-44.86,13.42-67.82,16.82
	c-26.55,3.93-53.67,5.27-80.59,5.84c-32.31,0.69-64.68,0.01-96.98-1.22c-33.81-1.28-66.41-9.24-98.75-18.67
	c-32.99-9.62-65.87-19.08-95.85-36.11c-16-9.09-28.84-21.04-32.74-38.83c-4.41-20.12,4.41-35.93,20.23-49.36
	c24.22-20.57,53.54-29.35,83.83-36.35c9.74-2.25,19.59-4.1,29.44-5.88c0.56-0.1,2.52,2.54,2.21,3.19
	c-3.97,8.35-7.92,16.73-12.62,24.69c-1.27,2.14-4.93,3.39-7.76,4.2c-16.57,4.73-32.95,9.35-47.06,19.92
	c-23.87,17.88-13.46,40.93,5.52,51.27c42.12,22.96,87.28,35.27,135.32,38.52C239.12,360.22,267.97,362.37,299.51,364.61z"/>
<path class="st0" d="M295.09,0c19.54,0.75,33.64,10.22,42.85,23.5c18.59,26.82,35.66,54.71,51.87,82.96
	c17.98,31.32,34.73,63.32,51.18,95.43c9.58,18.68,17.56,38.13,26.03,57.33c0.41,0.95-0.96,3.58-2.12,4.07
	c-12.03,5.12-24.14,10.11-36.39,14.72c-1.58,0.59-5.43-0.58-6.01-1.87c-14.36-31.78-27.97-63.89-42.63-95.53
	c-19.43-41.94-40.96-82.87-66.54-121.69c-2.95-4.48-6.52-8.64-10.22-12.58s-11.14-0.86-16.24,6.41
	c-27.72,39.4-49.15,82.09-69.95,125.11c-10.84,22.42-21.89,44.74-32.24,67.38c-4.63,10.11-7.65,20.9-11.73,31.26
	c-0.45,1.14-3.56,2.45-4.74,1.99c-13.07-4.97-26.01-10.22-38.88-15.62c-0.7-0.29-1.16-2.76-0.69-3.79
	c8.94-20.03,17.74-40.12,27.2-59.92c7.76-16.23,15.76-32.41,24.74-48.03c21.07-36.66,42.72-73.02,64.26-109.43
	c9.91-16.76,21.98-31.6,41.1-39.38C289.22,0.94,292.9,0.53,295.09,0z"/>
<path class="st0" d="M392.79,259.18c-0.64,16.1-3.63,32.13-14.39,43.95c-7.78,8.55-19.71,14.7-30.99,18.87
	c-11.01,4.07-23.52,4.59-35.45,6.1c-18.37,2.31-36.54,1.7-54.68-2.97c-18.3-4.72-33.22-14.59-44.39-28.48
	c-9.14-11.37-10.59-26.14-10.01-40.46c1.71-42.6,37.96-79.11,82.23-83.15c49.93-4.57,93.83,23.02,104.38,65.83
	C391.13,245.5,391.72,252.39,392.79,259.18z"/>
<path class="st0" d="M575.91,524.86c-0.69,25.16-12.56,44.52-34.13,56.27c-11.86,6.45-26.92,8.5-40.83,10.11
	c-24.31,2.8-46.13-4.43-60.97-23.71c-9.51-12.36-16.77-26.62-23.3-40.78c-14.12-30.64-27.16-61.76-40.57-92.7
	c-2.5-5.76-4.69-11.66-7.07-17.48c-1.42-3.47-0.93-5.23,3.57-5.77c11.3-1.38,22.5-3.62,33.81-4.76c2.46-0.25,6.78,2.08,7.68,4.22
	c8.75,20.64,16.21,41.81,25.52,62.21c10.53,23.08,22.37,45.61,34.08,68.18c5.85,11.28,16.99,15.23,34.4,11.06
	c19.51-4.68,30.16-16.1,22.11-39.89c-9.34-27.65-22.01-54.3-34.27-80.94c-5.8-12.57-14.1-24.06-20.99-36.19
	c-0.62-1.11,0.36-4.45,1.36-4.83c9.93-3.73,19.99-7.21,30.14-10.33c1.62-0.5,4.93,0.52,5.75,1.83
	c23.56,37.66,45.46,76.12,58.5,118.59C573.18,508.03,574.2,516.54,575.91,524.86z"/>
<path class="st0" d="M18.32,525.89c4.33-14.94,7.8-29.92,12.99-44.31c12.75-35.42,31.94-67.85,51.84-99.86
	c0.91-1.47,4.55-2.64,6.32-2.1c10.01,3.02,19.89,6.46,29.65,10.16c1.06,0.4,2.12,3.88,1.46,4.95
	c-19.93,32.27-38.72,65.13-50.89,100.94c-3.85,11.31-4.99,23.66-6.08,35.64c-0.72,8.05,13.24,19.25,24.48,20.61
	c5.61,0.68,11.37,0.61,17.03,0.4c11.85-0.46,16.59-9.57,20.72-17.93c14.67-29.6,28.94-59.4,42.74-89.38
	c4.89-10.63,8.13-21.98,11.89-33.08c1.76-5.19,4.49-7.16,10.49-5.97c10.62,2.12,21.47,3.19,32.13,5.16
	c1.46,0.27,3.79,3.72,3.36,4.85c-4.85,12.54-9.98,24.97-15.38,37.3c-12.17,27.73-23.89,55.67-37.11,82.93
	c-6.38,13.14-14.28,26.17-24.1,37.04c-15.32,16.93-36.69,19.79-59.01,18.13c-26.2-1.95-48.42-10.96-61.38-34.16
	C24.32,547.94,22.2,537.1,18.32,525.89z"/>
</svg>
