<svg width="37" height="37" viewBox="0 0 85 83" fill="none" xmlns="http://www.w3.org/2000/svg">
<ellipse cx="42.5" cy="41.3816" rx="42.5" ry="41.3816" fill="#1D252C"/>
<path fill-rule="evenodd" clip-rule="evenodd" d="M43.6475 22.3685C38.5704 22.3685 34.4583 26.3724 34.4583 31.3158C34.4583 36.2593 38.5704 40.2632 43.6475 40.2632C48.7245 40.2632 52.8367 36.2593 52.8367 31.3158C52.8367 26.3724 48.7245 22.3685 43.6475 22.3685ZM48.4725 31.3159C48.4725 28.7212 46.313 26.6185 43.6482 26.6185C40.9833 26.6185 38.8238 28.7212 38.8238 31.3159C38.8238 33.9106 40.9833 36.0133 43.6482 36.0133C46.313 36.0133 48.4725 33.9106 48.4725 31.3159ZM57.661 51.4475C57.661 50.0159 50.4705 46.7501 43.6475 46.7501C36.8245 46.7501 29.634 50.0159 29.634 51.4475V53.908H57.661V51.4475ZM25.2695 51.4474C25.2695 45.4974 37.5141 42.5 43.6479 42.5C49.7817 42.5 62.0263 45.4974 62.0263 51.4474V55.9211C62.0263 57.1514 60.9925 58.1579 59.729 58.1579H27.5668C26.3033 58.1579 25.2695 57.1514 25.2695 55.9211V51.4474Z" fill="white"/>
</svg>
