<svg id="visual" viewBox="0 0 960 540" width="960" height="540" xmlns="http://www.w3.org/2000/svg" xmlns:xlink="http://www.w3.org/1999/xlink" version="1.1"><rect x="0" y="0" width="960" height="540" fill="#352e48"></rect><path d="M0 319L26.7 331.5C53.3 344 106.7 369 160 373.8C213.3 378.7 266.7 363.3 320 358C373.3 352.7 426.7 357.3 480 357.8C533.3 358.3 586.7 354.7 640 348C693.3 341.3 746.7 331.7 800 329C853.3 326.3 906.7 330.7 933.3 332.8L960 335L960 541L933.3 541C906.7 541 853.3 541 800 541C746.7 541 693.3 541 640 541C586.7 541 533.3 541 480 541C426.7 541 373.3 541 320 541C266.7 541 213.3 541 160 541C106.7 541 53.3 541 26.7 541L0 541Z" fill="#6143ae"></path><path d="M0 406L26.7 397.3C53.3 388.7 106.7 371.3 160 366.3C213.3 361.3 266.7 368.7 320 370.7C373.3 372.7 426.7 369.3 480 371.3C533.3 373.3 586.7 380.7 640 380.3C693.3 380 746.7 372 800 371C853.3 370 906.7 376 933.3 379L960 382L960 541L933.3 541C906.7 541 853.3 541 800 541C746.7 541 693.3 541 640 541C586.7 541 533.3 541 480 541C426.7 541 373.3 541 320 541C266.7 541 213.3 541 160 541C106.7 541 53.3 541 26.7 541L0 541Z" fill="#5d42a5"></path><path d="M0 425L26.7 424.5C53.3 424 106.7 423 160 421.8C213.3 420.7 266.7 419.3 320 410.8C373.3 402.3 426.7 386.7 480 383.3C533.3 380 586.7 389 640 390C693.3 391 746.7 384 800 386.5C853.3 389 906.7 401 933.3 407L960 413L960 541L933.3 541C906.7 541 853.3 541 800 541C746.7 541 693.3 541 640 541C586.7 541 533.3 541 480 541C426.7 541 373.3 541 320 541C266.7 541 213.3 541 160 541C106.7 541 53.3 541 26.7 541L0 541Z" fill="#5a419b"></path><path d="M0 434L26.7 432.5C53.3 431 106.7 428 160 428.2C213.3 428.3 266.7 431.7 320 434.8C373.3 438 426.7 441 480 437.5C533.3 434 586.7 424 640 418.7C693.3 413.3 746.7 412.7 800 414C853.3 415.3 906.7 418.7 933.3 420.3L960 422L960 541L933.3 541C906.7 541 853.3 541 800 541C746.7 541 693.3 541 640 541C586.7 541 533.3 541 480 541C426.7 541 373.3 541 320 541C266.7 541 213.3 541 160 541C106.7 541 53.3 541 26.7 541L0 541Z" fill="#564092"></path><path d="M0 449L26.7 446.7C53.3 444.3 106.7 439.7 160 438C213.3 436.3 266.7 437.7 320 439.7C373.3 441.7 426.7 444.3 480 443.8C533.3 443.3 586.7 439.7 640 436.8C693.3 434 746.7 432 800 434.3C853.3 436.7 906.7 443.3 933.3 446.7L960 450L960 541L933.3 541C906.7 541 853.3 541 800 541C746.7 541 693.3 541 640 541C586.7 541 533.3 541 480 541C426.7 541 373.3 541 320 541C266.7 541 213.3 541 160 541C106.7 541 53.3 541 26.7 541L0 541Z" fill="#533f89"></path><path d="M0 488L26.7 486.8C53.3 485.7 106.7 483.3 160 482.3C213.3 481.3 266.7 481.7 320 478.3C373.3 475 426.7 468 480 470.3C533.3 472.7 586.7 484.3 640 490C693.3 495.7 746.7 495.3 800 494.7C853.3 494 906.7 493 933.3 492.5L960 492L960 541L933.3 541C906.7 541 853.3 541 800 541C746.7 541 693.3 541 640 541C586.7 541 533.3 541 480 541C426.7 541 373.3 541 320 541C266.7 541 213.3 541 160 541C106.7 541 53.3 541 26.7 541L0 541Z" fill="#4f3d80"></path><path d="M0 519L26.7 516.5C53.3 514 106.7 509 160 508.8C213.3 508.7 266.7 513.3 320 516.3C373.3 519.3 426.7 520.7 480 517.5C533.3 514.3 586.7 506.7 640 505.7C693.3 504.7 746.7 510.3 800 513.7C853.3 517 906.7 518 933.3 518.5L960 519L960 541L933.3 541C906.7 541 853.3 541 800 541C746.7 541 693.3 541 640 541C586.7 541 533.3 541 480 541C426.7 541 373.3 541 320 541C266.7 541 213.3 541 160 541C106.7 541 53.3 541 26.7 541L0 541Z" fill="#4c3c77"></path></svg>